<svg width="141" height="36" viewBox="0 0 141 36" fill="none" xmlns="http://www.w3.org/2000/svg">
<path d="M49.1313 6.96094L53.8086 14.9985L58.4858 6.96094H62.8604L56.2002 17.8745L63.0269 29H58.6069L53.8086 20.811L49.0103 29H44.5752L51.417 17.8745L44.7417 6.96094H49.1313ZM69.127 15.7705V35.2969H65.479V12.6221H68.8394L69.127 15.7705ZM79.7983 20.6597V20.9775C79.7983 22.1683 79.6571 23.2733 79.3745 24.2925C79.1021 25.3016 78.6934 26.1846 78.1484 26.9414C77.6136 27.6882 76.9526 28.2684 76.1655 28.6821C75.3784 29.0959 74.4702 29.3027 73.4409 29.3027C72.4217 29.3027 71.5286 29.116 70.7617 28.7427C70.0049 28.3592 69.3641 27.8193 68.8394 27.123C68.3146 26.4268 67.8908 25.6094 67.5679 24.6709C67.255 23.7223 67.033 22.6829 66.9019 21.5527V20.3267C67.033 19.1258 67.255 18.036 67.5679 17.0571C67.8908 16.0783 68.3146 15.2357 68.8394 14.5293C69.3641 13.8229 70.0049 13.278 70.7617 12.8945C71.5186 12.5111 72.4015 12.3193 73.4106 12.3193C74.4399 12.3193 75.3532 12.5212 76.1504 12.9248C76.9476 13.3184 77.6187 13.8835 78.1636 14.6201C78.7085 15.3467 79.1172 16.2246 79.3896 17.2539C79.6621 18.2731 79.7983 19.4084 79.7983 20.6597ZM76.1504 20.9775V20.6597C76.1504 19.9028 76.0798 19.2015 75.9385 18.5557C75.7972 17.8997 75.5752 17.3245 75.2725 16.8301C74.9697 16.3356 74.5812 15.9521 74.1069 15.6797C73.6427 15.3971 73.0827 15.2559 72.4268 15.2559C71.7809 15.2559 71.2259 15.3669 70.7617 15.5889C70.2975 15.8008 69.909 16.0985 69.5962 16.4819C69.2834 16.8654 69.0412 17.3145 68.8696 17.8291C68.6981 18.3337 68.577 18.8836 68.5063 19.479V22.4155C68.6274 23.1421 68.8343 23.8081 69.127 24.4136C69.4196 25.019 69.8333 25.5034 70.3682 25.8667C70.9131 26.2199 71.6094 26.3965 72.457 26.3965C73.113 26.3965 73.673 26.2552 74.1372 25.9727C74.6014 25.6901 74.9798 25.3016 75.2725 24.8071C75.5752 24.3026 75.7972 23.7223 75.9385 23.0664C76.0798 22.4105 76.1504 21.7142 76.1504 20.9775ZM86.5645 15.7402V29H82.9165V12.6221H86.3979L86.5645 15.7402ZM91.5747 12.5161L91.5444 15.9067C91.3224 15.8664 91.0802 15.8361 90.8179 15.8159C90.5656 15.7957 90.3133 15.7856 90.061 15.7856C89.4354 15.7856 88.8854 15.8765 88.4111 16.0581C87.9368 16.2297 87.5382 16.4819 87.2153 16.8149C86.9025 17.1379 86.6603 17.5314 86.4888 17.9956C86.3172 18.4598 86.2163 18.9795 86.186 19.5547L85.3535 19.6152C85.3535 18.5859 85.4544 17.6323 85.6562 16.7544C85.8581 15.8765 86.1608 15.1045 86.5645 14.4385C86.9782 13.7725 87.4928 13.2528 88.1084 12.8794C88.734 12.506 89.4556 12.3193 90.2729 12.3193C90.495 12.3193 90.7321 12.3395 90.9844 12.3799C91.2467 12.4202 91.4435 12.4657 91.5747 12.5161ZM100.778 29.3027C99.5669 29.3027 98.472 29.106 97.4932 28.7124C96.5244 28.3088 95.6969 27.7487 95.0107 27.0322C94.3346 26.3158 93.8149 25.4731 93.4517 24.5044C93.0884 23.5356 92.9067 22.4912 92.9067 21.3711V20.7656C92.9067 19.484 93.0934 18.3236 93.4668 17.2842C93.8402 16.2448 94.3599 15.3568 95.0259 14.6201C95.6919 13.8734 96.479 13.3032 97.3872 12.9097C98.2954 12.5161 99.2793 12.3193 100.339 12.3193C101.509 12.3193 102.534 12.5161 103.412 12.9097C104.29 13.3032 105.016 13.8582 105.591 14.5747C106.177 15.2811 106.611 16.1237 106.893 17.1025C107.186 18.0814 107.332 19.1611 107.332 20.3418V21.9009H94.6777V19.2822H103.729V18.9946C103.709 18.3387 103.578 17.7231 103.336 17.1479C103.104 16.5728 102.746 16.1086 102.261 15.7554C101.777 15.4022 101.131 15.2256 100.324 15.2256C99.7183 15.2256 99.1784 15.3568 98.7041 15.6191C98.2399 15.8714 97.8514 16.2397 97.5386 16.7241C97.2257 17.2085 96.9836 17.7938 96.812 18.48C96.6506 19.1561 96.5698 19.918 96.5698 20.7656V21.3711C96.5698 22.0876 96.6657 22.7536 96.8574 23.3691C97.0592 23.9746 97.3519 24.5044 97.7354 24.9585C98.1188 25.4126 98.583 25.7708 99.1279 26.0332C99.6729 26.2855 100.293 26.4116 100.99 26.4116C101.868 26.4116 102.65 26.235 103.336 25.8818C104.022 25.5286 104.618 25.0291 105.122 24.3833L107.044 26.2451C106.691 26.7598 106.232 27.2542 105.667 27.7285C105.102 28.1927 104.411 28.5711 103.593 28.8638C102.786 29.1564 101.847 29.3027 100.778 29.3027ZM119.366 24.5649C119.366 24.2017 119.275 23.8737 119.093 23.5811C118.912 23.2783 118.563 23.0059 118.049 22.7637C117.544 22.5215 116.798 22.2995 115.809 22.0977C114.941 21.9059 114.144 21.6789 113.417 21.4165C112.701 21.144 112.085 20.8161 111.57 20.4326C111.056 20.0492 110.657 19.5951 110.375 19.0703C110.092 18.5456 109.951 17.9401 109.951 17.2539C109.951 16.5879 110.097 15.9572 110.39 15.3618C110.682 14.7664 111.101 14.2417 111.646 13.7876C112.191 13.3335 112.852 12.9753 113.629 12.7129C114.416 12.4505 115.294 12.3193 116.263 12.3193C117.635 12.3193 118.811 12.5514 119.79 13.0156C120.778 13.4697 121.535 14.0903 122.06 14.8774C122.585 15.6545 122.847 16.5324 122.847 17.5112H119.199C119.199 17.0773 119.088 16.6737 118.866 16.3003C118.654 15.9168 118.331 15.609 117.897 15.377C117.464 15.1348 116.919 15.0137 116.263 15.0137C115.637 15.0137 115.117 15.1146 114.704 15.3164C114.3 15.5081 113.997 15.7604 113.795 16.0732C113.604 16.3861 113.508 16.7292 113.508 17.1025C113.508 17.375 113.558 17.6222 113.659 17.8442C113.77 18.0562 113.952 18.2529 114.204 18.4346C114.456 18.6061 114.799 18.7676 115.233 18.9189C115.677 19.0703 116.232 19.2166 116.898 19.3579C118.15 19.6203 119.224 19.9583 120.123 20.3721C121.031 20.7757 121.727 21.3005 122.211 21.9463C122.696 22.582 122.938 23.3893 122.938 24.3682C122.938 25.0947 122.782 25.7607 122.469 26.3662C122.166 26.9616 121.722 27.4813 121.137 27.9253C120.551 28.3592 119.85 28.6973 119.033 28.9395C118.225 29.1816 117.317 29.3027 116.308 29.3027C114.825 29.3027 113.568 29.0404 112.539 28.5156C111.51 27.9808 110.728 27.2996 110.193 26.4722C109.668 25.6346 109.406 24.7668 109.406 23.8687H112.933C112.973 24.5448 113.16 25.0846 113.493 25.4883C113.836 25.8818 114.26 26.1694 114.764 26.3511C115.279 26.5226 115.809 26.6084 116.354 26.6084C117.009 26.6084 117.559 26.5226 118.003 26.3511C118.447 26.1694 118.785 25.9272 119.018 25.6245C119.25 25.3117 119.366 24.9585 119.366 24.5649ZM135.32 24.5649C135.32 24.2017 135.229 23.8737 135.047 23.5811C134.866 23.2783 134.518 23.0059 134.003 22.7637C133.498 22.5215 132.752 22.2995 131.763 22.0977C130.895 21.9059 130.098 21.6789 129.371 21.4165C128.655 21.144 128.039 20.8161 127.524 20.4326C127.01 20.0492 126.611 19.5951 126.329 19.0703C126.046 18.5456 125.905 17.9401 125.905 17.2539C125.905 16.5879 126.051 15.9572 126.344 15.3618C126.636 14.7664 127.055 14.2417 127.6 13.7876C128.145 13.3335 128.806 12.9753 129.583 12.7129C130.37 12.4505 131.248 12.3193 132.217 12.3193C133.589 12.3193 134.765 12.5514 135.744 13.0156C136.733 13.4697 137.489 14.0903 138.014 14.8774C138.539 15.6545 138.801 16.5324 138.801 17.5112H135.153C135.153 17.0773 135.042 16.6737 134.82 16.3003C134.608 15.9168 134.285 15.609 133.852 15.377C133.418 15.1348 132.873 15.0137 132.217 15.0137C131.591 15.0137 131.071 15.1146 130.658 15.3164C130.254 15.5081 129.951 15.7604 129.75 16.0732C129.558 16.3861 129.462 16.7292 129.462 17.1025C129.462 17.375 129.512 17.6222 129.613 17.8442C129.724 18.0562 129.906 18.2529 130.158 18.4346C130.41 18.6061 130.754 18.7676 131.188 18.9189C131.632 19.0703 132.187 19.2166 132.853 19.3579C134.104 19.6203 135.179 19.9583 136.077 20.3721C136.985 20.7757 137.681 21.3005 138.166 21.9463C138.65 22.582 138.892 23.3893 138.892 24.3682C138.892 25.0947 138.736 25.7607 138.423 26.3662C138.12 26.9616 137.676 27.4813 137.091 27.9253C136.506 28.3592 135.804 28.6973 134.987 28.9395C134.18 29.1816 133.271 29.3027 132.262 29.3027C130.779 29.3027 129.522 29.0404 128.493 28.5156C127.464 27.9808 126.682 27.2996 126.147 26.4722C125.622 25.6346 125.36 24.7668 125.36 23.8687H128.887C128.927 24.5448 129.114 25.0846 129.447 25.4883C129.79 25.8818 130.214 26.1694 130.718 26.3511C131.233 26.5226 131.763 26.6084 132.308 26.6084C132.964 26.6084 133.514 26.5226 133.958 26.3511C134.402 26.1694 134.74 25.9272 134.972 25.6245C135.204 25.3117 135.32 24.9585 135.32 24.5649Z" fill="white"/>
<g clip-path="url(#clip0_1_162)">
<path d="M20.4994 27.4373C18.7958 27.4373 17.3951 28.7536 17.2247 30.4133V30.4323C17.2247 30.5277 17.2058 30.6231 17.2058 30.7185C17.2247 32.5308 18.7012 33.9997 20.4994 33.9997C22.3166 33.9997 23.7741 32.5308 23.7931 30.7185C23.7741 28.9062 22.3166 27.4373 20.4994 27.4373Z" fill="white"/>
<path d="M35.0375 27.4373C33.8261 27.4373 32.766 28.1049 32.1982 29.0779C31.9332 29.5548 31.7817 30.108 31.7817 30.6803C31.7817 32.5117 33.2582 33.9997 35.0754 33.9997C36.2111 33.9997 37.2143 33.4274 37.8011 32.5308C38.1229 32.0157 38.3311 31.4053 38.3311 30.7376C38.3501 28.9253 36.8736 27.4373 35.0375 27.4373Z" fill="white"/>
<path d="M20.5004 28.0479C19.4971 28.0479 18.6264 28.6011 18.1721 29.4214C18.5696 29.1925 19.0239 29.0589 19.5161 29.0589C20.9736 29.0589 22.185 30.2608 22.204 31.7297C22.204 32.2066 22.0715 32.6454 21.8443 33.0269C22.6393 32.5691 23.1883 31.7106 23.1883 30.7186C23.1693 29.2497 21.9579 28.0479 20.5004 28.0479Z" fill="white"/>
<path d="M35.0375 28.0479C34.091 28.0479 33.2014 28.5629 32.7282 29.3642C32.7282 29.3832 32.7092 29.3832 32.7092 29.4023C33.1067 29.1734 33.561 29.0399 34.0343 29.0399C35.5107 29.0399 36.7222 30.2608 36.7222 31.7488C36.7222 32.1875 36.6086 32.6263 36.4004 33.0269C36.76 32.8171 37.0629 32.55 37.3089 32.2066C37.5929 31.7679 37.7254 31.2719 37.7254 30.7568C37.7254 29.2688 36.5329 28.0479 35.0375 28.0479Z" fill="white"/>
<path d="M38.3878 23.7936H19.7996L14.6888 9.54313C14.3102 8.4939 13.3259 7.80713 12.2281 7.80713H2.61219C1.17359 7.80713 0 8.97082 0 10.4397C0 11.9087 1.17359 13.0724 2.61219 13.0724H10.4109L15.5217 27.3228C15.711 27.857 16.0706 28.2957 16.5249 28.601C17.2821 27.1702 18.7964 26.1973 20.5189 26.1973C22.4118 26.1973 24.0397 27.3801 24.7211 29.0588H30.873C31.5355 27.3801 33.1634 26.1973 35.0753 26.1973C36.9303 26.1973 38.5203 27.3228 39.2207 28.9253C40.2618 28.5819 41.0379 27.5899 41.0379 26.4262C41 24.9764 39.8264 23.7936 38.3878 23.7936Z" fill="white"/>
<path d="M38.3881 21.2565C38.3881 21.2565 38.2556 21.3328 38.0095 21.4473C37.7635 21.5617 37.3849 21.7334 36.8927 21.9051C36.6467 22.0005 36.3627 22.0768 36.0599 22.1722C35.757 22.2485 35.4163 22.3439 35.0566 22.4011C34.3373 22.5537 33.4855 22.63 32.558 22.611C31.6305 22.5919 30.5894 22.4583 29.5294 22.1531C28.4694 21.8479 27.3904 21.371 26.3683 20.7223C25.3461 20.0928 24.3807 19.3107 23.5289 18.4331C22.6582 17.5747 21.8821 16.6208 21.1628 15.667C20.4435 14.694 19.7999 13.7211 19.1942 12.7482C18.8914 12.2713 18.5885 11.7943 18.3235 11.3174C18.0396 10.8596 17.7556 10.4017 17.4906 9.94388C16.9417 9.06634 16.4117 8.22696 15.8627 7.50203C15.3327 6.75803 14.7838 6.12849 14.2159 5.61342C13.648 5.09834 13.0802 4.69773 12.5123 4.41157C11.9444 4.12542 11.3955 3.95373 10.9223 3.83926C10.4491 3.74388 10.0516 3.66757 9.78655 3.64849C9.52155 3.62942 9.37012 3.61034 9.37012 3.61034C9.37012 3.61034 9.50262 3.55311 9.76762 3.43865C10.0326 3.34326 10.4112 3.19065 10.9412 3.09526C11.4712 2.99988 12.1337 2.94265 12.9098 3.03803C13.6859 3.11434 14.5566 3.38142 15.4274 3.82019C16.2981 4.25896 17.1499 4.88849 17.926 5.61342C18.721 6.33834 19.4592 7.15865 20.1596 8.03619C20.5192 8.47496 20.86 8.91373 21.1818 9.37157C21.5225 9.82942 21.8443 10.2682 22.185 10.7451C22.8475 11.6608 23.4911 12.5765 24.1347 13.454C24.7782 14.3316 25.4408 15.19 26.1222 15.9531C26.4629 16.3347 26.8226 16.7162 27.1633 17.0596C27.5229 17.403 27.8826 17.7273 28.2422 18.0325C28.9805 18.643 29.7376 19.139 30.5137 19.5396C31.2898 19.9402 32.0848 20.2454 32.842 20.4743C33.5991 20.7033 34.3373 20.8559 34.9998 20.9513C35.3406 21.0085 35.6434 21.0276 35.9463 21.0848C36.2492 21.1039 36.5142 21.142 36.7602 21.1611C37.0063 21.1802 37.2335 21.1993 37.4227 21.2183C37.612 21.2374 37.7824 21.2374 37.9338 21.2374C38.2367 21.2565 38.3881 21.2565 38.3881 21.2565Z" fill="white"/>
<path d="M35.5301 21.6571C35.3408 21.638 35.1326 21.6189 34.9433 21.5808C34.2051 21.4854 33.4479 21.3137 32.6908 21.0848C31.8201 20.8368 31.0061 20.4934 30.249 20.1119C29.3972 19.654 28.6021 19.1199 27.8639 18.5285C27.5232 18.2614 27.1825 17.9371 26.7282 17.5174C26.3685 17.1549 26.0089 16.7734 25.6682 16.4109L25.6492 16.3919C25.0246 15.686 24.381 14.8657 23.6238 13.8356C23.1885 13.2442 22.772 12.6528 22.3367 12.0423C22.1095 11.7371 21.9013 11.4128 21.6742 11.1076C21.3145 10.6115 20.9927 10.1537 20.6899 9.75309L20.6141 9.6577C20.2924 9.23801 19.9895 8.8374 19.6677 8.43678C18.9105 7.50201 18.2102 6.73893 17.4909 6.09032C16.7148 5.38447 15.9198 4.81216 15.1248 4.39247C14.3487 3.99186 13.5537 3.74386 12.8154 3.66755C12.6072 3.64847 12.4179 3.62939 12.2097 3.62939C12.399 3.7057 12.5883 3.78201 12.7776 3.87739C13.4022 4.18263 14.0269 4.62139 14.6326 5.17463C14.6894 5.21278 14.7273 5.27001 14.784 5.32724C15.0869 5.55616 15.3898 5.80416 15.6926 6.09032C16.393 6.73893 17.1123 7.50201 17.8695 8.43678C18.1912 8.8374 18.4941 9.23801 18.8159 9.6577L18.8916 9.75309C19.1945 10.1537 19.5163 10.5925 19.8759 11.1076C20.1031 11.4319 20.3302 11.7371 20.5384 12.0423C20.9738 12.6528 21.3902 13.2442 21.8256 13.8356C22.5828 14.8657 23.2263 15.6669 23.851 16.3919L23.8699 16.4109C24.2106 16.7734 24.5703 17.174 24.9299 17.5174C25.3842 17.9371 25.725 18.2614 26.0657 18.5285C26.785 19.1199 27.5989 19.654 28.4507 20.1119C29.2079 20.5125 30.0218 20.8368 30.8925 21.0848C31.6497 21.3137 32.4069 21.4854 33.1451 21.5808C33.3344 21.6189 33.5237 21.638 33.7319 21.6571C33.5426 21.6952 33.3533 21.7525 33.164 21.7906C32.7476 21.8669 32.3311 21.9242 31.8768 21.9623C32.104 21.9814 32.3311 22.0005 32.5583 22.0005H32.7476C33.5237 22.0005 34.2619 21.9242 34.9433 21.7906C35.1515 21.7525 35.3408 21.6952 35.5301 21.6571Z" fill="white"/>
<path d="M38.388 23.986H19.3645L14.1212 9.3349C13.8373 8.53367 13.0801 7.99951 12.2472 7.99951H2.61242C1.51454 7.99951 0.605957 8.89613 0.605957 10.0217C0.605957 10.2697 0.643815 10.4986 0.738459 10.7275C1.07918 10.4414 1.51454 10.2887 1.98777 10.2887H11.6036C12.4365 10.2887 13.1937 10.8229 13.4776 11.6241L18.6831 26.1798C19.232 25.9318 19.8377 25.7983 20.4624 25.7983C21.2006 25.7983 21.882 25.97 22.4878 26.2943H32.9744C33.5801 25.989 34.2805 25.7983 34.9998 25.7983C35.738 25.7983 36.4194 25.97 37.0252 26.2943H37.7255C38.5773 26.2943 39.3156 26.8475 39.5995 27.5915C40.0538 27.2291 40.3377 26.6567 40.3377 26.0272C40.3945 24.9017 39.4859 23.986 38.388 23.986Z" fill="white"/>
</g>
<defs>
<clipPath id="clip0_1_162">
<rect width="41" height="31" fill="white" transform="translate(0 3)"/>
</clipPath>
</defs>
</svg>
